<svg xmlns="http://www.w3.org/2000/svg" width="372" height="372" viewBox="0 0 372 372" fill="none">
<circle cx="186" cy="186" r="186" fill="black"/>
<path d="M216.024 73.4878L222.37 85.8038C264.305 100.876 293.134 141.396 293.134 186.307C293.134 245.18 245.304 293.066 186.5 293.066C127.696 293.066 79.8657 245.18 79.8657 186.307C79.8657 141.396 108.695 100.863 150.63 85.8038L156.976 73.4878C106.162 86.8037 70 133.129 70 186.307C70 250.618 122.264 302.943 186.5 302.943C250.736 302.943 303 250.618 303 186.307C303 133.129 266.838 86.8037 216.024 73.4878Z" fill="url(#paint0_linear_80_885)"/>
<mask id="mask0_80_885" maskUnits="userSpaceOnUse" x="86" y="86" width="201" height="200">
<path d="M186.5 285.7C241.491 285.7 286.07 241.069 286.07 186.014C286.07 130.959 241.491 86.3281 186.5 86.3281C131.509 86.3281 86.9297 130.959 86.9297 186.014C86.9297 241.069 131.509 285.7 186.5 285.7Z" fill="white"/>
</mask>
<g>
<path d="M286.252 183.661C285.692 191.246 273.987 222.743 259.602 222.743C253.756 222.743 252.465 214.182 251.515 207.817C248.933 217.975 231.065 239.887 217.814 239.887C193.734 239.887 188.131 189.014 186.499 182.259C184.867 189.026 179.264 239.887 155.185 239.887C141.945 239.887 124.078 217.975 121.483 207.817C120.521 214.182 119.23 222.743 113.396 222.743C99.0115 222.743 87.3067 191.246 86.7464 183.661C83.6528 188.221 83.7015 206.647 88.2811 218.45C103.555 257.837 141.824 285.847 186.499 285.847C231.175 285.847 269.444 257.849 284.717 218.45C289.297 206.647 289.346 188.234 286.252 183.661Z" fill="url(#paint1_linear_80_885)"/>
<path d="M186.5 240.034C190.482 247.314 199.106 258.264 213.916 258.264C228.727 258.264 240.237 242.985 244.086 236.522C242.856 241.046 240.347 250.765 248.422 250.765C266.899 250.765 280.26 221.511 280.26 221.511C265.681 259.118 229.153 285.847 186.512 285.847C143.87 285.847 107.331 259.118 92.7637 221.511C92.7637 221.511 106.125 250.765 124.602 250.765C132.677 250.765 130.168 241.046 128.938 236.522C132.787 242.985 143.943 258.264 159.107 258.264C173.918 258.264 182.541 247.326 186.524 240.034H186.5Z" fill="url(#paint2_linear_80_885)"/>
<path d="M209.969 272.848C200.871 272.848 193.806 270.007 186.499 265.458C179.191 270.007 172.126 272.848 163.028 272.848C149.167 272.848 144.965 268.763 139.947 265.007C140.093 269.775 144.941 276.506 149.959 278.957C161.091 283.859 173.612 285.835 186.486 285.835C199.36 285.835 211.881 283.859 223.014 278.957C228.032 276.506 232.879 269.775 233.025 265.007C228.007 268.763 223.805 272.848 209.945 272.848H209.969Z" fill="url(#paint3_linear_80_885)"/>
</g>
<path d="M173.041 137.628L158.742 167.955C158.157 169.211 157.962 170.601 158.181 171.967L162.724 199.379C162.87 200.281 164.162 200.281 164.308 199.379L168.327 174.796L175.976 168.735L173.041 137.628Z" fill="#FF4800"/>
<path d="M199.959 137.628L214.258 167.955C214.843 169.211 215.037 170.601 214.818 171.967L210.275 199.391C210.129 200.281 208.838 200.281 208.692 199.391L204.672 174.796L197.023 168.735L199.959 137.628Z" fill="#FF4800"/>
<path d="M207.608 90.023L188.01 51.9777C187.377 50.7461 185.623 50.7461 184.977 51.9777L165.38 90.0352C164.576 91.6082 164.272 93.3885 164.515 95.1445L174.405 164.699L172.944 171.186L178.157 185.49C178.279 185.807 178.571 186.014 178.912 186.014H194.076C194.417 186.014 194.721 185.807 194.831 185.49L200.044 171.186L198.582 164.699L208.472 95.1445C208.716 93.3885 208.424 91.6082 207.608 90.0352V90.023Z" fill="url(#paint4_linear_80_885)"/>
<path d="M185.817 153.188L178.863 170.418C177.791 173.089 177.584 176.027 178.278 178.82L185.708 208.622C185.915 209.439 187.072 209.439 187.279 208.622L194.709 178.82C195.403 176.027 195.196 173.089 194.124 170.418L187.169 153.188C186.926 152.578 186.049 152.578 185.805 153.188H185.817Z" fill="#FF4800"/>
<defs>
<linearGradient id="paint0_linear_80_885" x1="186.5" y1="7.1889" x2="186.5" y2="377.204" gradientUnits="userSpaceOnUse">
<stop offset="0.3" stop-color="#00ADFF"/>
<stop offset="1" stop-color="#1542FF"/>
</linearGradient>
<linearGradient id="paint1_linear_80_885" x1="186.499" y1="186.539" x2="186.499" y2="319.502" gradientUnits="userSpaceOnUse">
<stop stop-color="#FCE3AD"/>
<stop offset="0.07" stop-color="#FCE2A4"/>
<stop offset="0.19" stop-color="#FCE08B"/>
<stop offset="0.33" stop-color="#FCDD64"/>
<stop offset="0.48" stop-color="#FCDA32"/>
<stop offset="0.66" stop-color="#F9BC22"/>
<stop offset="1" stop-color="#F57700"/>
</linearGradient>
<linearGradient id="paint2_linear_80_885" x1="186.5" y1="220.548" x2="186.5" y2="296.126" gradientUnits="userSpaceOnUse">
<stop stop-color="#FCD619"/>
<stop offset="0.35" stop-color="#F9B811"/>
<stop offset="1" stop-color="#F57700"/>
</linearGradient>
<linearGradient id="paint3_linear_80_885" x1="186.499" y1="258.349" x2="186.499" y2="293.188" gradientUnits="userSpaceOnUse">
<stop stop-color="#F57700"/>
<stop offset="1" stop-color="#FF4800"/>
</linearGradient>
<linearGradient id="paint4_linear_80_885" x1="186.5" y1="51.0509" x2="186.5" y2="226.803" gradientUnits="userSpaceOnUse">
<stop stop-color="#E4E4E4"/>
<stop offset="0.88" stop-color="#B6B8B8"/>
</linearGradient>
</defs>
</svg>
